<svg width="100" height="100" viewBox="0 0 221 221" fill="none" xmlns="http://www.w3.org/2000/svg">
    <g filter="url(#filter0_d)">
        <path d="M115.5 206C171.005 206 216 161.005 216 105.5C216 49.9954 171.005 5 115.5 5C59.9954 5 15 49.9954 15 105.5C15 161.005 59.9954 206 115.5 206Z" fill="#4DC0B5"/>
    </g>
    <g clip-path="url(#clip0)">
        <path opacity="0.4" d="M170.891 100.406L120.594 50.109C119.243 48.7583 117.411 47.9995 115.5 47.9995C113.59 47.9995 111.757 48.7583 110.406 50.109L60.1092 100.406C58.7584 101.757 57.9996 103.589 57.9996 105.5C57.9996 107.411 58.7584 109.243 60.1092 110.594L110.406 160.889C111.075 161.558 111.869 162.088 112.743 162.45C113.616 162.813 114.553 162.999 115.499 162.999C116.445 162.999 117.382 162.813 118.255 162.45C119.129 162.088 119.923 161.558 120.592 160.889L170.891 110.594C172.242 109.243 173.001 107.411 173.001 105.5C173.001 103.589 172.242 101.757 170.891 100.406V100.406ZM148.205 103.227L129.291 120.686C129.034 120.921 128.715 121.076 128.371 121.133C128.028 121.19 127.675 121.145 127.356 121.005C127.037 120.866 126.766 120.636 126.575 120.345C126.384 120.054 126.282 119.713 126.281 119.365V107.297H104.719V121.672C104.719 122.148 104.53 122.605 104.193 122.942C103.856 123.279 103.399 123.469 102.922 123.469H95.7345C95.2579 123.469 94.8009 123.279 94.4639 122.942C94.1269 122.605 93.9376 122.148 93.9376 121.672V103.703C93.9376 101.797 94.6948 99.9687 96.0428 98.6208C97.3907 97.2728 99.2188 96.5156 101.125 96.5156H126.281V84.4473C126.281 84.0979 126.383 83.7559 126.574 83.4634C126.765 83.1708 127.037 82.9403 127.358 82.8002C127.678 82.66 128.032 82.6162 128.376 82.6742C128.721 82.7322 129.041 82.8894 129.298 83.1266L148.212 100.586C148.562 100.909 148.768 101.358 148.787 101.834C148.805 102.31 148.634 102.774 148.311 103.124C148.28 103.16 148.246 103.193 148.21 103.227H148.205Z" fill="white"/>
        <path d="M148.21 103.227L129.296 120.686C129.039 120.922 128.719 121.079 128.375 121.136C128.03 121.194 127.677 121.15 127.357 121.01C127.037 120.87 126.765 120.64 126.574 120.348C126.383 120.055 126.281 119.714 126.281 119.365V107.297H104.719V121.672C104.719 122.148 104.529 122.605 104.192 122.942C103.855 123.279 103.398 123.469 102.922 123.469H95.7344C95.2578 123.469 94.8008 123.279 94.4638 122.942C94.1268 122.605 93.9375 122.148 93.9375 121.672V103.703C93.9375 101.797 94.6948 99.9685 96.0427 98.6206C97.3906 97.2727 99.2188 96.5154 101.125 96.5154H126.281V84.4472C126.281 84.0977 126.383 83.7558 126.574 83.4632C126.765 83.1707 127.037 82.9402 127.357 82.8C127.678 82.6599 128.032 82.6161 128.376 82.6741C128.721 82.7321 129.041 82.8893 129.298 83.1265L148.212 100.585C148.562 100.909 148.768 101.358 148.787 101.834C148.805 102.31 148.634 102.774 148.311 103.123C148.279 103.159 148.246 103.193 148.21 103.227V103.227Z" fill="white"/>
    </g>
    <defs>
        <filter id="filter0_d" x="0" y="0" width="221" height="221" filterUnits="userSpaceOnUse" color-interpolation-filters="sRGB">
            <feFlood flood-opacity="0" result="BackgroundImageFix"/>
            <feColorMatrix in="SourceAlpha" type="matrix" values="0 0 0 0 0 0 0 0 0 0 0 0 0 0 0 0 0 0 127 0"/>
            <feOffset dx="-5" dy="5"/>
            <feGaussianBlur stdDeviation="5"/>
            <feColorMatrix type="matrix" values="0 0 0 0 0 0 0 0 0 0 0 0 0 0 0 0 0 0 0.25 0"/>
            <feBlend mode="normal" in2="BackgroundImageFix" result="effect1_dropShadow"/>
            <feBlend mode="normal" in="SourceGraphic" in2="effect1_dropShadow" result="shape"/>
        </filter>
        <clipPath id="clip0">
            <rect width="115" height="115" fill="white" transform="translate(58 48)"/>
        </clipPath>
    </defs>
</svg>
